<svg xmlns="http://www.w3.org/2000/svg" viewBox="0 0 512 512"><defs><style>.cls-1{fill:#d89480;}.cls-2{fill:#e9ab8d;}.cls-3{fill:#efb9a8;}.cls-4{fill:#895f49;}.cls-11,.cls-12,.cls-5{fill:none;}.cls-5{stroke:#000;stroke-miterlimit:10;stroke-width:4px;opacity:0.15;}.cls-12,.cls-5{stroke-linecap:round;}.cls-6{opacity:0.12;}.cls-7{fill:#302624;}.cls-8{opacity:0.31;}.cls-9{opacity:0.2;}.cls-10{fill:#fff;}.cls-11,.cls-12{stroke:#302624;stroke-linejoin:round;stroke-width:3px;}</style></defs><title>slug</title><g id="Left_eye" data-name="Left eye"><path class="cls-1" d="M501.06,166.85s6.73-7.17,0-8.69-7.41,3.69-7.4,5.43-17.36,40.18-24.31,64.73-10.43,32.58-18.25,36.05,26.48,13,26.48,13-1.12-17.75.46-30.33C481.84,216.7,492.59,182.7,501.06,166.85Z"/></g><g id="Slug"><path class="cls-2" d="M177.21,361.33c-31.82,0-65.6-1.42-92.74-2.55-17.39-.73-32.42-1.36-41.49-1.36H32.67c-6.63,0-24.25,0-24.91-2.24,0,0-.13-.72,2.54-2.45,6.26-4.05,18.7-6.25,31.87-8.58,9.86-1.74,20-3.54,29.12-6.29,21.24-6.43,88.56-23.92,89.23-24.1l188.81-56.64c3.51.42,50.09,5.93,66.91,7.8a50.57,50.57,0,0,0,5.54.29,133.42,133.42,0,0,0,17.49-1.59,122,122,0,0,1,16-1.49c5.32,0,9.49.88,12.76,2.67,7.45,4.1,10.9,13.51,13.94,21.81,2.14,5.83,4.16,11.34,7.34,14.51,3.78,3.79,3.6,9.95,3.15,13.29-.81,6.05-3.52,11.35-5.55,12.51-2.87,1.63-5.16,7-7.39,12.24-1.53,3.61-3.12,7.34-4.55,8.77-3.26,3.26-13.55,4.92-30.57,4.92a145.33,145.33,0,0,1-19.07-1.13,97.79,97.79,0,0,0-12.21-.83c-6.7,0-12.91,1.63-17.91,3a38.45,38.45,0,0,1-8.15,1.61c-1.7,0-4.18.07-7.61.16-7.17.2-18,.5-33.44.5-13.71,0-17.8-4.72-21.08-8.5-2-2.33-3.93-4.54-7.59-4.54-3.32,0-5.42,1.72-7.85,3.71-4.46,3.66-10.58,8.67-29.29,8.67-12.57,0-23.51,1.07-36.18,2.3A617.72,617.72,0,0,1,177.21,361.33Z"/><path class="cls-2" d="M349.41,258.15c4.82.57,50.17,5.94,66.72,7.77a50.22,50.22,0,0,0,5.65.3,135.09,135.09,0,0,0,17.63-1.6,122,122,0,0,1,15.83-1.48c5.15,0,9.16.84,12.28,2.55C474.64,269.61,478,278.83,481,287c2.18,5.94,4.24,11.55,7.57,14.88,3.48,3.48,3.29,9.29,2.87,12.45-.83,6.19-3.52,10.89-5.06,11.77-3.15,1.8-5.41,7.11-7.81,12.72-1.5,3.52-3.05,7.16-4.34,8.45-2.11,2.11-9,4.63-29.86,4.63a146.06,146.06,0,0,1-19-1.12,97.2,97.2,0,0,0-12.32-.84c-6.82,0-13.11,1.65-18.16,3a37.78,37.78,0,0,1-7.9,1.58c-1.71,0-4.2.07-7.63.17-7.18.19-18,.49-33.42.49-13.26,0-17.17-4.52-20.32-8.16-2.08-2.4-4.23-4.88-8.35-4.88-3.68,0-6,1.91-8.48,3.94-4.35,3.56-10.31,8.44-28.66,8.44-12.62,0-23.58,1.07-36.27,2.31a616.76,616.76,0,0,1-66.69,3.56c-31.8,0-65.56-1.42-92.69-2.55-17.41-.73-32.45-1.36-41.54-1.36H32.66c-6.23,0-20.33,0-23.59-1.49a10,10,0,0,1,1.77-1.36c6.09-3.94,18.44-6.12,31.51-8.43,9.88-1.75,20.1-3.55,29.23-6.32,21.22-6.43,88.52-23.91,89.2-24.09h.07l188.56-56.57m-.17-2-189,56.69S92.51,330.4,71,336.92s-50.17,7.82-61.25,15c-9.37,6.07,4.58,6.53,22.91,6.53H43c22.81,0,81.45,3.91,134.23,3.91s73.64-5.87,103-5.87,28.67-12.38,37.14-12.38,5.86,13,28.67,13,35.84-.66,41-.66,15-4.56,26.06-4.56,14.34,2,31.28,2,27.69-1.63,31.28-5.22,7.17-18.24,11.73-20.85,10.1-19.87,2.6-27.36-8.47-29.33-21.5-36.49c-3.79-2.09-8.31-2.8-13.24-2.8-10.28,0-22.36,3.08-33.46,3.08a51.14,51.14,0,0,1-5.43-.28c-17.59-2-67.11-7.82-67.11-7.82Z"/></g><g id="Right_eye" data-name="Right eye"><path class="cls-3" d="M452.19,286.74s10.21-1.52,8.47-9.34-9.58-16.11,1.09-71.24a6.84,6.84,0,0,1,.95-2.33c.49-.41,5.86-6-.82-8.39s-7.33,4.15-6.92,6.27-.77,1.41-1.14,2.77c-.62,2.32-10.64,36.43-11.73,46.86s-4.24,23.13-3.69,26.06S440.9,287.29,452.19,286.74Z"/></g><g id="Shell"><path class="cls-4" d="M370.09,252.21a73.31,73.31,0,0,1-20.53,17.59c-12.38,6.84-18.89,4.24-26.06,7.17s-35.84,9.77-44.64,17.27-24.76,35.83-51.47,49.19-74,24.44-106.87-2.6-54.08-84.06-18.89-142.38,96.76-63.86,140.42-61.25,86.34,45,99,67.11,20.85,35.52,24.11,37.15,1.63,3.8,3.26,4.67S371.7,250.25,370.09,252.21Z"/></g><g id="Shadows"><path class="cls-5" d="M148.54,225.27s1-3.36,5.22-2.71,6,6,2.93,10.43-16.78,11.64-17.92-5.26,29.48-21,33.39-5.25-6.19,33.8-22.8,33.64-28.25-25.42-10.62-43.5,51.51-16.29,58.51,3.75,5.38,72-47.24,71.19-49.52-89.27,10.91-109.63,119.25,32.9,95.79,129.66"/><g class="cls-6"><path class="cls-7" d="M120.52,340.83c32.91,27,80.15,16,106.87,2.6s42.68-41.7,51.47-49.19S316.33,279.9,323.5,277s13.68-.33,26.06-7.17a73.31,73.31,0,0,0,20.53-17.59c1.61-2,0-5.22-1.63-6.08-10.75,14.11-41.38,11.29-67.44,18.46s-26.72,20.2-117.94,30.62c-63.45,7.26-88.62-27.36-91.69-76C71.66,269.92,91.54,317,120.52,340.83Z"/></g><g class="cls-8"><path class="cls-7" d="M278.86,294.24c-8.79,7.49-24.76,35.83-51.47,49.19a138.53,138.53,0,0,1-35.62,11.94l.08,0c99.35-18.05,111.34-58,120.46-67,6.28-6.24,19.44-11.63,27.06-14.38-6.37,1.62-11,1-15.87,3C316.33,279.9,287.66,286.74,278.86,294.24Z"/></g></g><g id="Highligts"><g class="cls-9"><path class="cls-10" d="M177.21,362.33c52.78,0,73.64-5.87,103-5.87s28.67-12.38,37.14-12.38,5.86,13,28.67,13,35.84-.66,41-.66,15-4.56,26.06-4.56,14.34,2,31.28,2,27.69-1.63,31.28-5.22a12.3,12.3,0,0,0,1.92-2.84c-2.43,5.26-23.21,2-30.81,3s-18.68-3-30.41-3.41-24.76,4.12-29.32,5-37.36,1.31-45.83.65-11.95-12.38-23-13.46-22.37,14.33-31.5,14.12-26.28.86-64.94,5.75-124,1.63-139.23,1-47,0-47,0H43C65.79,358.42,124.43,362.33,177.21,362.33Z"/></g></g><g id="Outlines"><path class="cls-11" d="M478,247.07c3.8-30.37,14.55-64.37,23-80.22,0,0,6.73-7.17,0-8.69s-7.41,3.69-7.4,5.43-17.36,40.18-24.31,64.73c-5.08,17.93-8.31,27.05-12.73,32-.95-9.89-.36-25.85,5.13-54.18a6.84,6.84,0,0,1,.95-2.33c.49-.41,5.86-6-.82-8.39s-7.33,4.15-6.92,6.27-.77,1.41-1.14,2.77c-.62,2.32-10.64,36.43-11.73,46.86-.37,3.6-1,7.47-1.63,11.12-8.1,1.09-16.47,2.33-24.11,1.48-11.2-1.25-35.35-4.08-51.42-6a63.93,63.93,0,0,0,5.16-5.76c1.61-2,0-5.22-1.63-6.08s0-3-3.26-4.67-11.4-15-24.11-37.15-55.38-64.5-99-67.11-105.24,2.93-140.42,61.25c-30,49.68-19,98.41,5.2,128.48-14.39,3.87-28.1,7.64-35.83,10-21.5,6.51-50.17,7.82-61.25,15s10.43,6.52,33.23,6.52,81.45,3.91,134.23,3.91,73.64-5.87,103-5.87,28.67-12.38,37.14-12.38,5.86,13,28.67,13,35.84-.66,41-.66,15-4.56,26.06-4.56,14.34,2,31.28,2,27.69-1.63,31.28-5.22,7.17-18.24,11.73-20.85,10.1-19.87,2.6-27.36c-5.26-5.27-7.32-17.61-12.59-27C477.16,267.51,476.92,256,478,247.07Z"/><path class="cls-11" d="M105.38,325.1a96.84,96.84,0,0,0,15.14,15.73c32.91,27,80.15,16,106.87,2.6s42.68-41.7,51.47-49.19S316.33,279.9,323.5,277s13.68-.33,26.06-7.17a71,71,0,0,0,16.14-12.61"/><path class="cls-12" d="M472.3,266.73a18.83,18.83,0,0,0-3.82-2.79,20.73,20.73,0,0,0-5.42-2"/><path class="cls-12" d="M457.66,284.64a6.46,6.46,0,0,0,3-7.24c-.55-2.46-1.7-5-2.69-9"/><path class="cls-12" d="M439,270.62c-.53,3.21-.85,5.68-.64,6.78.5,2.73,2.23,8.93,11.54,9.35"/></g></svg>